# xmcd
# 
# Track frame offsets:
#     150
#     29261
#     58868
#     81884
#     113625
#     141560
#     163801
#     195660
#     214729
#     237617
#     267701
# 
# Disc length: 3873
# 
# Revision: 2
# Processed by: cddbd v1.5.2PL0 Copyright (c) Steve Scherf et al.
# Submitted via: BonkEnc v1.0.8
# 
DISCID=ab0f1f0b
DTITLE=Various Artist - Piano Jazz 2
DYEAR=2010
DGENRE=Jazz
TTITLE0=Maj-Britt Kramer Trio - Tidvis
TTITLE1=Encounter - Ocean Of Dreams
TTITLE2=Olivier Antunes Trio - Olli's Olive
TTITLE3=Manami Morita - Jungle Book
TTITLE4=Michael Sailing - Daggry (At Dawn)
TTITLE5=Yasumasa Kumagai - No Weapon
TTITLE6=Emiko Minakuchi Trio - Ringo Oiwake
TTITLE7=Joakim Pedersen Trio - Sad I Parken
TTITLE8=Refleks - Lovesong
TTITLE9=Ami Fukui - Zai Jian
TTITLE10=Yasumasa Kumagai - Amazing Grace
EXTD=YEAR: 2010
EXTT0=
EXTT1=
EXTT2=
EXTT3=
EXTT4=
EXTT5=
EXTT6=
EXTT7=
EXTT8=
EXTT9=
EXTT10=
PLAYORDER=
